HIERARCHY
ROOT Hips
{
	OFFSET 0.00000 0.00000 0.00000
	CHANNELS 6 Xposition Yposition Zposition Zrotation Yrotation Xrotation 
	JOINT LHipJoint
	{
		OFFSET 0 0 0
		CHANNELS 3 Zrotation Yrotation Xrotation
		JOINT LeftHip
		{
			OFFSET 1.36337 -1.57426 1.11036
			CHANNELS 3 Zrotation Yrotation Xrotation
			JOINT LeftKnee
			{
				OFFSET 2.38468 -6.55187 0.00000
				CHANNELS 3 Zrotation Yrotation Xrotation
				JOINT LeftAnkle
				{
					OFFSET 2.37166 -6.51609 0.00000
					CHANNELS 3 Zrotation Yrotation Xrotation
					JOINT LeftToe
					{
						OFFSET 0.29078 -0.79891 2.01393
						CHANNELS 3 Zrotation Yrotation Xrotation
						End Site
						{
							OFFSET 0.00000 -0.00000 1.07924
						}
					}
				}
			}
		}
	}
	JOINT RHipJoint
	{
		OFFSET 0 0 0
		CHANNELS 3 Zrotation Yrotation Xrotation
		JOINT RightHip
		{
			OFFSET -1.36349 -1.57426 1.11036
			CHANNELS 3 Zrotation Yrotation Xrotation
			JOINT RightKnee
			{
				OFFSET -2.29562 -6.30717 0.00000
				CHANNELS 3 Zrotation Yrotation Xrotation
				JOINT RightAnkle
				{
					OFFSET -2.40985 -6.62100 0.00000
					CHANNELS 3 Zrotation Yrotation Xrotation
					JOINT RightToe
					{
						OFFSET -0.23197 -0.63733 1.92232
						CHANNELS 3 Zrotation Yrotation Xrotation
						End Site
						{
							OFFSET -0.00000 -0.00000 1.01562
						}
					}
				}
			}
		}
	}
	JOINT lowerback
	{
		OFFSET 0 0 0
		CHANNELS 3 Zrotation Yrotation Xrotation
		JOINT Chest
		{
			OFFSET -0.08565 2.03602 -0.24562
			CHANNELS 3 Zrotation Yrotation Xrotation
			JOINT Chest2
			{
				OFFSET -0.00036 2.05693 0.00216
				CHANNELS 3 Zrotation Yrotation Xrotation
				JOINT lowerneck
				{
					OFFSET 0 0 0
					CHANNELS 3 Zrotation Yrotation Xrotation
					JOINT Neck
					{
						OFFSET -0.03664 1.69515 0.31789
						CHANNELS 3 Zrotation Yrotation Xrotation
						JOINT Head
						{
							OFFSET 0.00932 1.70181 -0.46013
							CHANNELS 3 Zrotation Yrotation Xrotation
							End Site
							{
								OFFSET 0.01243 1.77620 -0.19377
							}
						}
					}
				}
				JOINT LeftCollar
				{
					OFFSET 0 0 0
					CHANNELS 3 Zrotation Yrotation Xrotation
					JOINT LeftShoulder
					{
						OFFSET 3.74344 0.81315 -0.36647
CHANNELS 3 Zrotation Xrotation Yrotation
						JOINT LeftElbow
						{
OFFSET 0 -4.971850 -0.000000
CHANNELS 3 Zrotation Xrotation Yrotation
							JOINT LeftWrist
							{
OFFSET 0 -3.358110 0.000000
CHANNELS 3 Zrotation Xrotation Yrotation
								JOINT lhand
								{
									OFFSET 0 0 0
CHANNELS 3 Zrotation Xrotation Yrotation
									JOINT LFingers
									{
OFFSET 0 -0.622780 0.000000
CHANNELS 3 Zrotation Xrotation Yrotation
										End Site
										{
OFFSET 0 -0.502100 0.000000
										}
									}
								}
								JOINT LThumb
								{
OFFSET 0 0.000000 0.000000
CHANNELS 3 Zrotation Xrotation Yrotation
									End Site
									{
OFFSET 0 -0.509760 0.509760
									}
								}
							}
						}
					}
				}
				JOINT RightCollar
				{
					OFFSET 0 0 0
					CHANNELS 3 Zrotation Yrotation Xrotation
					JOINT RightShoulder
					{
						OFFSET -3.75385 0.50666 -0.06525
CHANNELS 3 Zrotation Xrotation Yrotation
						JOINT RightElbow
						{
OFFSET 0 -4.964930 -0.000000
CHANNELS 3 Zrotation Xrotation Yrotation
							JOINT RightWrist
							{
OFFSET 0 -3.349290 0.000000
CHANNELS 3 Zrotation Xrotation Yrotation
								JOINT rhand
								{
									OFFSET 0 0 0
CHANNELS 3 Zrotation Xrotation Yrotation
									JOINT RFingers
									{
OFFSET 0 -0.638040 0.000000
CHANNELS 3 Zrotation Xrotation Yrotation
										End Site
										{
OFFSET 0 -0.514410 0.000000
										}
									}
								}
								JOINT RThumb
								{
OFFSET 0 0.000000 0.000000
CHANNELS 3 Zrotation Xrotation Yrotation
									End Site
									{
OFFSET 0 -0.522260 0.522260
									}
								}
							}
						}
					}
				}
			}
		}
	}
}
MOTION
Frames: 5
Frame Time: 0.008333333333333333
6.991800 15.904800 0.717700 176.514000 -81.671600 -168.350000 0.000000 0.000000 0.000000 -8.618500 0.845400 -38.149800 7.770900 15.948200 51.733400 1.247100 1.340900 -21.625400 0.038600 -1.268400 -3.487700 0.000000 0.000000 0.000000 0.402200 -2.872300 -30.288300 -2.194600 -9.260100 26.612500 0.287500 -9.497800 -4.455800 -1.173200 6.875100 -19.345900 -0.473500 1.740700 29.808600 -0.213000 1.340200 6.912300 -0.403500 0.341300 -8.618700 -4.185700 0.367200 -30.054700 -0.721000 2.597500 23.815600 0.896100 0.598600 12.892200 -0.000000 -0.000000 0.000000 13.180500 -22.587600 -46.413900 69.792000 -58.399300 42.593400 26.457600 -7.336200 10.902900 0.000000 0.000000 0.000000 -7.125000 0.000000 0.000000 -0.445600 17.837500 -0.287700 -0.000000 -0.000000 0.000000 -4.814300 -9.816600 24.813500 -48.655800 -52.438800 -25.104600 -7.977600 -10.698400 28.851000 0.000000 0.000000 0.000000 7.125000 0.000000 -0.000000 25.038300 57.257900 -7.849600
6.983943 15.891497 0.664474 173.803210 -82.696116 -165.677533 0.000000 0.000000 0.000000 -8.725749 0.609977 -38.202853 7.742799 15.926767 51.630876 1.221778 0.569351 -21.111116 0.017457 -0.851108 -2.339216 0.000000 0.000000 0.000000 0.070494 -3.046441 -30.440451 -2.430006 -9.708120 28.037767 0.286872 -9.719970 -5.992752 -0.935869 6.159431 -17.248533 -0.640029 1.599548 30.014920 -0.316527 1.159432 6.337973 -0.370070 0.284062 -9.375854 -3.773074 0.525194 -27.578651 -0.684717 2.458686 23.255989 0.796807 0.609601 12.212194 0.000000 0.000000 0.000000 10.772077 -21.340695 -45.475201 71.459339 -58.659321 44.015741 25.301074 -9.009217 11.874099 0.000000 0.000000 0.000000 -7.125000 0.000000 0.000000 -1.314232 16.889401 -0.877110 0.000000 0.000000 0.000000 -4.688681 -8.310386 24.605286 -48.434584 -52.344226 -24.929404 -7.189054 -10.633724 31.884761 0.000000 0.000000 0.000000 7.125000 0.000000 0.000000 28.325115 59.764716 -10.738692
6.966923 15.883154 0.621789 174.481210 -83.561223 -166.277295 0.000000 0.000000 0.000000 -8.409004 0.465184 -38.409603 7.762699 15.941943 51.703407 1.208706 0.073349 -20.821115 0.022487 -0.968016 -2.660782 0.000000 0.000000 0.000000 0.218204 -3.148674 -30.682594 -2.667598 -10.136112 29.418814 0.257238 -9.624140 -7.305772 -0.866716 5.936080 -16.598909 -0.289561 1.623800 30.285566 -0.121015 1.300526 6.509361 -0.405771 0.336677 -9.306828 -3.967217 0.318421 -29.125085 -0.721915 2.370914 23.873187 0.811794 0.522899 12.748663 0.000000 0.000000 0.000000 7.998931 -22.080643 -44.754643 72.351388 -58.789709 44.777935 23.466550 -10.083486 12.766917 0.000000 0.000000 0.000000 -7.125000 0.000000 0.000000 -2.637696 16.114502 -1.804595 0.000000 0.000000 0.000000 -5.172983 -8.610089 24.140564 -48.120995 -52.208905 -24.681283 -6.660408 -10.479575 33.659109 0.000000 0.000000 0.000000 7.125000 0.000000 0.000000 30.537531 61.166037 -12.690826
6.942359 15.859872 0.584642 175.271195 -84.372689 -167.184043 0.000000 0.000000 0.000000 -8.059498 0.162277 -38.395843 7.805172 15.974086 51.857860 1.204316 -0.339145 -20.645927 0.022639 -0.969847 -2.665789 0.000000 0.000000 0.000000 0.292864 -3.256824 -30.540876 -2.897032 -10.525571 30.696862 0.205839 -9.375844 -8.608277 -0.663168 5.199066 -14.479149 0.378222 1.539956 30.305939 -0.213084 1.371232 6.708212 -0.919379 0.351240 -9.068077 -4.266748 0.199563 -29.279591 -0.138613 2.171950 23.756145 1.050384 0.498518 12.719187 0.000000 0.000000 0.000000 6.141764 -22.416774 -44.574499 73.195959 -58.905594 45.500729 23.057051 -11.000328 13.387925 0.000000 0.000000 0.000000 -7.125000 0.000000 0.000000 -2.953504 15.489633 -2.059897 0.000000 0.000000 0.000000 -5.299620 -8.639129 23.781565 -47.531749 -51.948318 -24.216987 -6.226735 -9.481630 33.333209 0.000000 0.000000 0.000000 7.125000 0.000000 0.000000 30.659038 60.783845 -12.470424
6.928748 15.845765 0.544680 169.715434 -85.291469 -161.717553 0.000000 0.000000 0.000000 -8.254822 -0.420840 -38.447923 7.850279 16.008004 52.021459 1.194309 -0.703099 -20.444649 0.028163 -1.081607 -2.973314 0.000000 0.000000 0.000000 -0.095072 -3.764075 -30.587589 -3.110103 -10.870785 31.845729 0.172108 -9.261970 -9.415757 -0.580085 4.877006 -13.558048 0.377581 1.471639 30.945306 -0.266421 1.303540 6.410628 -0.970052 0.322409 -9.718398 -4.465887 0.245105 -29.210132 0.116385 2.245587 24.112269 1.198864 0.538863 12.841153 0.000000 0.000000 0.000000 4.455358 -21.924800 -44.909855 73.798301 -58.984425 46.016770 23.665786 -11.915407 13.535552 0.000000 0.000000 0.000000 -7.125000 0.000000 0.000000 -2.544070 15.263180 -1.786375 0.000000 0.000000 0.000000 -5.597046 -8.038985 23.396182 -46.746861 -51.596031 -23.599949 -6.707427 -8.918714 32.324242 0.000000 0.000000 0.000000 7.125000 0.000000 0.000000 29.197632 60.036177 -11.284329
